PathFileType	4	(X/Y/Z)	C:\Users\Basilio\Documents\Thesis Gigler\squatting_fais\c3dfiles\077\SJ_pre2\markers_experimental.trc
DataRate	CameraRate	NumFrames	NumMarkers	Units	OrigDataRate	OrigDataStartFrame	OrigNumFrames
200.000000	200.000000	4	60	mm	200.000000	1105	1263
Frame#	Time	FHD			LBHD			RBHD			C7			T10			CLAV			LSHO			LUUPA			LMUPA			LDUPA			LLEP			LMEP			LRAD			LUL			LRFIN			RSHO			RUPA1			RMUPA			RDUPA			RLEP			RMEP			RRAD			RUL			RUFIN			LASI			RASI			USACR			LSACR			RSACR			LTHI1			LTHI2			LTHI3			LTHI4			LLFC			LMFC			LTIB1			LTIB2			LTIB3			LTIB4			LLMAL			LHEE			LMT1			LMT2			LMT5			RTHI			RTHI2			RTHI3			RTHI4			RLFC			RMFC			RTIB1			RTIB2			RTIB3			RTIB4			RLMAL			RMMAL			RHEE			RMT1			RMT2			RMT5			
		X1	Y1	Z1	X2	Y2	Z2	X3	Y3	Z3	X4	Y4	Z4	X5	Y5	Z5	X6	Y6	Z6	X7	Y7	Z7	X8	Y8	Z8	X9	Y9	Z9	X10	Y10	Z10	X11	Y11	Z11	X12	Y12	Z12	X13	Y13	Z13	X14	Y14	Z14	X15	Y15	Z15	X16	Y16	Z16	X17	Y17	Z17	X18	Y18	Z18	X19	Y19	Z19	X20	Y20	Z20	X21	Y21	Z21	X22	Y22	Z22	X23	Y23	Z23	X24	Y24	Z24	X25	Y25	Z25	X26	Y26	Z26	X27	Y27	Z27	X28	Y28	Z28	X29	Y29	Z29	X30	Y30	Z30	X31	Y31	Z31	X32	Y32	Z32	X33	Y33	Z33	X34	Y34	Z34	X35	Y35	Z35	X36	Y36	Z36	X37	Y37	Z37	X38	Y38	Z38	X39	Y39	Z39	X40	Y40	Z40	X41	Y41	Z41	X42	Y42	Z42	X43	Y43	Z43	X44	Y44	Z44	X45	Y45	Z45	X46	Y46	Z46	X47	Y47	Z47	X48	Y48	Z48	X49	Y49	Z49	X50	Y50	Z50	X51	Y51	Z51	X52	Y52	Z52	X53	Y53	Z53	X54	Y54	Z54	X55	Y55	Z55	X56	Y56	Z56	X57	Y57	Z57	X58	Y58	Z58	X59	Y59	Z59	X60	Y60	Z60	

1106	5.525	-171.1335144042969	1821.587890625	-928.7808837890627	-307.8834533691407	1706.066162109375	-995.3974609375002	-314.5292053222657	1705.274780273438	-849.5804443359377	-371.3932800292969	1584.824462890625	-920.940612792969	-422.4177246093751	1250.880981445313	-908.9976196289065	-203.7629089355469	1518.441772460938	-924.3555908203127	-267.6654357910157	1554.431640625	-1113.396484375	-320.9040527343751	1418.78564453125	-1279.994506835938	-290.6787109375001	1378.15673828125	-1281.89794921875	-333.5012817382813	1367.795654296875	-1323.934814453125	-335.4664001464844	1304.297729492188	-1355.959350585938	-415.7121887207032	1292.29443359375	-1325.272583007813	-341.0802001953126	1081.760864257813	-1145.153564453125	-308.1875915527344	1029.701538085938	-1198.633422851563	-295.8433227539063	1057.243408203125	-1091.80908203125	-224.9031524658204	1556.142944335938	-733.5422363281251	-284.4264526367188	1428.23486328125	-551.0379028320314	-261.5057678222657	1383.39599609375	-553.3439941406251	-299.0299682617188	1374.01513671875	-508.0198059082032	-305.0392761230469	1309.347045898438	-479.7444458007814	-390.7074584960939	1301.236572265625	-502.6241455078126	-330.4420776367188	1082.81884765625	-667.0156250000001	-269.7417602539063	1047.00634765625	-629.0516357421876	-281.3710327148438	1078.171142578125	-724.9708251953126	-256.4166564941407	1039.766967773438	-1049.77001953125	-245.5995178222657	1050.191772460938	-778.9593505859377	-445.2040100097657	1146.9697265625	-902.4519653320315	-458.1001892089845	1117.967163085938	-929.8877563476565	-457.305389404297	1116.131591796875	-874.6677856445315	-373.8943481445313	842.4819946289065	-1128.481811523438	-354.3214111328126	761.5546264648439	-1144.10009765625	-305.3797607421876	758.0192871093751	-1143.39013671875	-386.4130859375001	711.0531616210939	-1131.369384765625	-366.9320983886719	563.1469726562501	-1134.759521484375	-338.5625915527344	514.7980346679689	-1012.57373046875	-326.0359191894532	336.5531616210938	-1126.5625	-369.5848999023438	308.0375061035157	-1199.89404296875	-332.1451721191407	299.1268920898438	-1172.918701171875	-331.4502868652344	213.9798278808594	-1160.915893554688	-399.0662536621095	103.3222427368164	-1215.472045898438	-436.7730712890626	46.62186431884766	-1162.088989257813	-223.2163848876954	57.00817108154298	-1206.838012695313	-235.2919158935547	60.68514633178712	-1248.388427734375	-349.2597045898438	100.4582595825196	-1140.7783203125	-388.8383789062501	737.4145507812501	-680.0352172851564	-357.2813110351563	678.9521484375001	-666.4133911132814	-323.2203674316407	676.2343750000001	-668.3713989257814	-389.6390991210939	605.4658813476564	-678.2043457031251	-389.3463745117189	536.8762207031251	-668.8573608398439	-337.1483154296876	501.9752197265626	-784.2458496093752	-333.9675292968751	404.4602966308595	-651.2022705078126	-399.3606567382814	328.8167724609376	-615.2072143554689	-353.4422912597657	323.1029663085938	-625.5375976562501	-340.1288452148438	273.1375122070313	-654.9052124023439	-409.3841552734376	98.80286407470706	-595.3518676757814	-359.5969543457032	94.04757690429689	-674.7633666992189	-450.3292236328126	45.54062271118165	-661.7965698242189	-239.5149993896485	59.8000946044922	-577.2095336914064	-254.807846069336	61.63901901245119	-542.6238403320314	-285.1196899414063	42.14348220825196	-501.204315185547	
1107	5.53	-171.342529296875	1821.664916992188	-928.6571044921877	-307.9381713867188	1706.108642578125	-995.191101074219	-314.7660827636719	1705.271850585938	-849.3577270507815	-371.6310424804688	1584.88427734375	-920.814636230469	-422.6289062500001	1250.771240234375	-909.0095825195315	-204.0530090332032	1518.4560546875	-924.209655761719	-267.9712829589844	1554.387573242188	-1113.30029296875	-321.3543701171876	1418.822387695313	-1279.994750976563	-290.8363037109376	1378.101440429688	-1281.8623046875	-333.9653015136719	1367.826293945313	-1323.810546875	-335.5834655761719	1304.292724609375	-1355.915649414063	-415.8000793457032	1292.253173828125	-1325.264526367188	-341.1243286132813	1081.652099609375	-1145.173950195313	-308.0212402343751	1029.63330078125	-1198.62109375	-295.7367553710938	1057.096435546875	-1091.77783203125	-225.3665618896485	1555.997802734375	-733.4135742187501	-284.9541320800782	1428.016967773438	-551.0081176757814	-261.9466552734376	1383.212646484375	-553.3918457031251	-299.5746765136719	1373.796508789063	-507.959930419922	-305.5634460449219	1309.087646484375	-479.7018127441407	-391.1400756835939	1300.933837890625	-502.6850891113282	-330.6471557617188	1082.646728515625	-667.0806884765626	-270.0590820312501	1046.716064453125	-629.0651855468751	-281.6224365234376	1078.013061523438	-725.0015258789064	-256.5829467773438	1039.720458984375	-1049.743774414063	-245.7702178955079	1050.044311523438	-778.9573364257815	-445.4116210937501	1146.916381835938	-902.4893798828127	-458.3045959472657	1117.845825195313	-929.9466552734377	-457.4639892578126	1116.119262695313	-874.6970214843752	-373.8546142578126	842.3977050781252	-1128.519409179688	-354.4219970703126	761.1318359375001	-1144.047241210938	-305.4115600585938	757.8649291992189	-1143.326904296875	-386.7325134277345	711.0172729492189	-1131.397827148438	-367.2703857421876	563.1372070312501	-1134.670776367188	-338.9577026367188	514.6959838867189	-1012.556396484375	-326.1981811523438	336.4933166503907	-1126.515991210938	-369.7771606445313	308.0024719238282	-1199.845947265625	-332.3807983398438	299.1338806152344	-1172.943115234375	-331.5886230468751	213.886215209961	-1160.955810546875	-399.0679626464845	103.2344284057617	-1215.392822265625	-436.7807922363282	46.59746170043946	-1162.092041015625	-223.1548309326172	56.93342590332033	-1206.888061523438	-235.2024383544922	60.65494918823244	-1248.36865234375	-349.2922363281251	100.4083557128907	-1140.813110351563	-389.0153808593751	737.3486328125001	-680.0617065429689	-357.5140991210938	678.8946533203126	-666.5169067382814	-323.4084777832032	676.2141113281251	-668.5343627929689	-389.8851318359376	605.5016479492189	-678.2869873046876	-389.5744628906251	536.9459228515626	-668.9610595703126	-338.6302490234376	502.0231323242189	-784.7927856445315	-334.2726135253907	404.4815673828126	-651.3004760742189	-399.5819396972657	328.7906494140626	-615.2304077148439	-353.6519775390626	323.1101379394532	-625.5672607421876	-340.2814941406251	273.2041320800782	-654.9608154296876	-409.3871154785157	98.79900360107425	-595.3413696289064	-359.3695983886719	93.97171020507814	-674.6843872070314	-450.3013610839845	45.54204559326173	-661.7813720703126	-239.5288391113282	59.82588958740236	-577.1765136718751	-254.8415527343751	61.66655349731447	-542.6528320312501	-285.0917663574219	42.15147018432618	-501.1759033203126	
1108	5.535	-171.3265991210938	1821.546142578125	-928.3491821289065	-307.9199829101563	1706.079467773438	-995.0007324218752	-314.8988342285157	1705.253784179688	-849.185485839844	-371.9239196777344	1584.801879882813	-920.7055664062502	-422.9395751953126	1250.671020507813	-908.9878540039065	-204.392807006836	1518.370727539063	-924.0976562500002	-268.2994384765626	1554.389282226563	-1113.224731445313	-321.6932067871094	1418.852294921875	-1279.8828125	-290.9276733398438	1378.1025390625	-1281.783081054688	-334.1273498535157	1367.8076171875	-1323.793823242188	-335.5803222656251	1304.263671875	-1355.853149414063	-415.8365173339845	1292.147216796875	-1325.240356445313	-341.1651611328126	1081.675415039063	-1145.201293945313	-308.0029602050782	1029.697875976563	-1198.563110351563	-295.9576416015626	1057.01611328125	-1091.8154296875	-225.7881927490235	1555.881225585938	-733.2242431640626	-285.3236694335938	1427.887084960938	-550.9638671875001	-262.3828125000001	1383.137817382813	-553.3723754882814	-300.0767517089844	1373.497314453125	-507.8764648437501	-306.1158752441407	1308.79052734375	-479.6806945800782	-391.4860839843751	1300.726440429688	-502.6925048828126	-330.6342468261719	1082.652709960938	-667.0865478515626	-270.3831481933594	1046.597534179688	-629.0811157226564	-281.8081054687501	1077.847900390625	-725.0130004882814	-256.6604614257813	1039.635131835938	-1049.785278320313	-245.9006500244141	1049.885986328125	-778.889831542969	-445.5718383789064	1146.791381835938	-902.5895996093752	-458.561248779297	1117.696533203125	-929.9958496093752	-457.595672607422	1116.0439453125	-874.8348388671877	-373.8906860351563	842.2916259765627	-1128.576171875	-354.4200744628907	761.3434448242189	-1144.166748046875	-305.4783325195313	757.7868041992189	-1143.29248046875	-386.7882690429689	710.9560546875001	-1131.42041015625	-367.1717529296876	562.8692016601564	-1134.626220703125	-339.2973327636719	514.5963745117189	-1012.507629394531	-326.3247375488282	336.6037292480469	-1126.50830078125	-369.8526916503907	308.0553894042969	-1199.89599609375	-332.5196533203126	299.1663208007813	-1172.9609375	-331.6886291503907	214.1009216308594	-1160.852783203125	-399.1505432128907	103.1910247802735	-1215.5068359375	-436.7673645019532	46.58948516845704	-1162.113891601563	-223.1355590820313	56.94384384155275	-1206.885620117188	-235.1545715332032	60.65959548950197	-1248.372436523438	-349.2901000976563	100.4114151000977	-1140.836547851563	-389.2084350585939	737.3468017578126	-680.1296997070314	-357.6868591308594	678.8666381835939	-666.5574340820314	-323.6179809570313	676.1722412109376	-668.6991577148439	-390.2929077148439	605.4375000000001	-678.4634399414064	-389.926483154297	536.9661254882814	-669.1318969726564	-339.2953186035157	501.685028076172	-785.2958984375002	-334.6095886230469	404.468475341797	-651.4522094726564	-399.8218078613282	328.8447570800782	-615.3555908203126	-353.8222045898438	323.1521606445313	-625.6766967773439	-340.4758605957032	273.2325134277344	-655.0468139648439	-409.3983764648439	98.78662109375003	-595.3215332031251	-359.4826354980469	94.10433959960939	-674.7129516601564	-450.3622131347657	45.5544662475586	-661.7836914062501	-239.4947662353516	59.8295021057129	-577.2318115234376	-254.8189239501954	61.71797943115236	-542.6553955078126	-285.0916748046876	42.18169021606446	-501.1945190429689	
1109	5.54	-171.2181243896485	1821.268432617188	-928.034851074219	-308.0224609375001	1706.104858398438	-994.9436035156252	-315.0631103515626	1705.198486328125	-849.112243652344	-372.2239074707032	1584.785522460938	-920.6533813476565	-423.1484680175782	1250.69091796875	-909.0142211914065	-204.7741851806641	1518.354248046875	-923.980163574219	-268.5404357910157	1554.381713867188	-1113.083251953125	-321.7266540527344	1418.80859375	-1279.695678710938	-290.9906311035157	1378.129272460938	-1281.79736328125	-334.7272644042969	1367.846923828125	-1323.631591796875	-335.6799011230469	1304.263427734375	-1355.765869140625	-415.9004516601564	1292.094970703125	-1325.21533203125	-341.2224121093751	1081.59423828125	-1145.235717773438	-308.0086975097657	1029.635620117188	-1198.610595703125	-296.0802917480469	1056.875244140625	-1091.8681640625	-226.1529998779297	1555.791259765625	-733.0451049804689	-285.8698120117188	1427.551391601563	-550.8787841796876	-262.9539184570313	1382.82421875	-553.3037109375001	-300.5358581542969	1373.244995117188	-507.8775634765626	-306.5464477539063	1308.671630859375	-479.6684875488282	-392.0388793945314	1300.301635742188	-502.7137451171876	-331.1419982910157	1082.258056640625	-667.1104736328126	-270.6546936035157	1046.325561523438	-629.1411743164064	-282.0671997070313	1077.618286132813	-724.9822387695314	-256.6175537109376	1039.579345703125	-1049.872192382813	-246.1850128173829	1049.679565429688	-779.0266723632815	-445.7488708496095	1146.76513671875	-902.6323242187502	-458.7253417968751	1117.646728515625	-930.093444824219	-457.8284301757814	1115.927490234375	-874.877380371094	-373.9475402832032	842.2656860351565	-1128.64794921875	-354.4453125000001	761.4146118164064	-1144.113159179688	-305.5393981933594	757.6974487304689	-1143.245239257813	-386.8928833007814	710.9643554687501	-1131.445922851563	-367.4119262695313	562.7802734375001	-1134.60009765625	-339.6520385742188	514.5961303710939	-1012.482666015625	-326.5027160644532	336.6148681640626	-1126.532104492188	-369.9650878906251	307.6186523437501	-1199.833618164063	-332.7653198242188	299.1608581542969	-1172.953369140625	-331.8193664550782	214.0199432373047	-1160.914306640625	-399.1484375000001	103.1543807983399	-1215.487915039063	-436.761444091797	46.58021545410157	-1162.10693359375	-223.2041168212891	56.97226715087892	-1206.943725585938	-235.1323394775391	60.62636184692384	-1248.408081054688	-349.3089294433594	100.436279296875	-1140.8828125	-389.3784179687501	737.3446655273439	-680.2049560546876	-357.8828125000001	678.8923339843751	-666.6969604492189	-323.7958984375001	676.1408081054689	-668.7733154296876	-390.5545959472657	605.5269165039064	-678.5699462890626	-390.2716674804689	536.9753417968751	-669.2241210937501	-338.8656616210938	501.6513671875001	-785.1921997070315	-334.9466247558594	404.3546142578126	-651.6798095703126	-400.005096435547	328.8290100097657	-615.4504394531251	-353.9726562500001	323.2942810058594	-625.8248901367189	-340.6859436035157	273.3157348632813	-655.1185913085939	-409.4065856933595	98.80541992187503	-595.2715454101564	-359.3289184570313	93.96072387695314	-674.6460571289064	-450.332489013672	45.58921813964844	-661.7952880859376	-239.5607910156251	59.80732727050783	-577.2668457031251	-254.8353424072266	61.70692825317384	-542.7106323242189	-285.0948181152344	42.19213485717774	-501.2181091308595	
